General
Complete name                    : Meet The Spartans.mkv
Format                           : Matroska
File size                        : 1.24 GiB
Duration                         : 1h 22mn
Overall bit rate                 : 2 147 Kbps


Video
ID                               : 1
Format                           : AVC
Duration                         : 1h 22mn
Bit rate                         : 1 657 Kbps
Width                            : 720 pixels
Height                           : 560 pixels
Display aspect ratio             : 16:9
Resolution                       : 8 bits
Colorimetry                      : 4:2:0
Scan type                        : Progressive
Bits/(Pixel*Frame)               : 0.164
Stream size                      : 982 MiB (77%)
Writing library                  : x264 core 79

Audio
ID                               : 2
Format                           : AC-3
Format/Info                      : Audio Coding 3
Codec ID                         : A_AC3
Duration                         : 1h 22mn
Bit rate mode                    : Constant
Bit rate                         : 448 Kbps
Channel(s)                       : 6 channels
Channel positions                : Front: L C R, Side: L R, LFE
Sampling rate                    : 48.0 KHz
Stream size                      : 266 MiB (21%)
Language                         : English

Text #1
Language                         : Arabic

Text #2
Language                         : Danish

Text #3
Language                         : English

Text #4
Language                         : Finnish

Text #5
Language                         : Greek

Text #6
Language                         : Hebrew

Text #7
Language                         : Hungarian

Text #8
Language                         : Norwegian

Text #9
Language                         : Polish

Text #10
Language                         : Portuguese

Text #11
Language                         : Swedish

Text #12
Language                         : Danish

Menu
00:00:00.000                     : Chapter  1


